<svg width="51" height="50" viewBox="0 0 51 50" fill="none" xmlns="http://www.w3.org/2000/svg">
<g clip-path="url(#clip0)">
<path d="M25.0581 50C38.8777 50 50.0808 38.8071 50.0808 25C50.0808 11.1929 38.8777 0 25.0581 0C11.2384 0 0.0354004 11.1929 0.0354004 25C0.0354004 38.8071 11.2384 50 25.0581 50Z" fill="#32BA7C"/>
<path d="M18.6642 36.2776L31.5307 49.1325C42.1871 46.2934 50.0807 36.5931 50.0807 25C50.0807 24.7634 50.0807 24.5268 50.0807 24.2902L39.9769 14.9843L18.6642 36.2776Z" fill="#0AA06E"/>
<path d="M25.6897 30.5994C26.7948 31.7035 26.7948 33.5962 25.6897 34.7003L23.4005 36.9874C22.2954 38.0915 20.4009 38.0915 19.2958 36.9874L9.27097 26.8927C8.16586 25.7886 8.16586 23.8959 9.27097 22.7918L11.5601 20.5047C12.6652 19.4006 14.5597 19.4006 15.6648 20.5047L25.6897 30.5994Z" fill="white"/>
<path d="M34.4516 13.1704C35.5567 12.0663 37.4511 12.0663 38.5562 13.1704L40.8454 15.4574C41.9505 16.5615 41.9505 18.4543 40.8454 19.5584L23.4795 36.8297C22.3744 37.9338 20.4799 37.9338 19.3748 36.8297L17.0857 34.5426C15.9806 33.4385 15.9806 31.5458 17.0857 30.4417L34.4516 13.1704Z" fill="white"/>
</g>
<defs>
<clipPath id="clip0">
<rect x="0.0354004" width="50.0454" height="50" fill="white"/>
</clipPath>
</defs>
</svg>
