<svg width="51" height="50" viewBox="0 0 51 50" fill="none" xmlns="http://www.w3.org/2000/svg">
<path d="M25.3094 0C11.5114 0 0.286743 11.2144 0.286743 25C0.286743 38.7856 11.5114 50 25.3094 50C39.1075 50 50.3321 38.7856 50.3321 25C50.3321 11.2144 39.1075 0 25.3094 0Z" fill="#C12020"/>
<path d="M27.3946 37.5C27.3946 38.6505 26.461 39.5832 25.3095 39.5832C24.1579 39.5832 23.2244 38.6505 23.2244 37.5C23.2244 36.3495 24.1579 35.4168 25.3095 35.4168C26.461 35.4168 27.3946 36.3495 27.3946 37.5Z" fill="#ECEFF1"/>
<path d="M28.6102 26.3374C27.8722 26.6769 27.3945 27.4208 27.3945 28.2314V29.1668C27.3945 30.3165 26.4625 31.25 25.3094 31.25C24.1563 31.25 23.2243 30.3165 23.2243 29.1668V28.2314C23.2243 25.7999 24.6546 23.571 26.863 22.5521C28.9878 21.5751 30.5223 18.9812 30.5223 17.7082C30.5223 14.8376 28.1849 12.5 25.3094 12.5C22.434 12.5 20.0965 14.8376 20.0965 17.7082C20.0965 18.8583 19.1641 19.7918 18.011 19.7918C16.8579 19.7918 15.9259 18.8583 15.9259 17.7082C15.9259 12.5397 20.1358 8.33319 25.3094 8.33319C30.483 8.33319 34.6929 12.5397 34.6929 17.7082C34.6929 20.5231 32.2489 24.6605 28.6102 26.3374Z" fill="white"/>
</svg>
