<svg width="51" height="50" viewBox="0 0 51 50" fill="none" xmlns="http://www.w3.org/2000/svg">
<g clip-path="url(#clip0)">
<path d="M50.5422 24.5325L46.2735 21.9467C46.1318 21.8609 45.9958 21.658 45.9673 21.4948C45.9127 21.1833 45.8502 20.8745 45.7812 20.5678C45.7451 20.406 45.7935 20.1669 45.8918 20.0336L48.8519 16.0144C49.1467 15.614 48.9871 15.2274 48.4951 15.1513L43.5626 14.3883C43.3985 14.3629 43.1954 14.2275 43.1064 14.0875C42.9281 13.8072 42.7425 13.5325 42.5509 13.2616C42.4553 13.1262 42.408 12.8872 42.4473 12.7261L43.6369 7.87681C43.7555 7.39363 43.4596 7.09841 42.976 7.21649L38.1224 8.40503C37.961 8.44461 37.7215 8.39703 37.5863 8.30151C37.3294 8.12019 37.0687 7.94483 36.8034 7.77534C36.6636 7.68605 36.5287 7.48285 36.5037 7.31898L35.7525 2.38877C35.6778 1.89733 35.2912 1.73686 34.8896 2.03038L30.8596 4.97697C30.7257 5.07486 30.4866 5.12253 30.3246 5.08601C30.0012 5.01314 29.6752 4.94675 29.3463 4.88937C29.1829 4.86094 28.9803 4.72508 28.8941 4.58334L26.3065 0.318904C26.0486 -0.10622 25.6301 -0.10622 25.3721 0.318904L22.7839 4.58359C22.698 4.72533 22.495 4.86119 22.3317 4.88963C22.0198 4.94419 21.7108 5.00668 21.4038 5.07546C21.2418 5.11164 21.0026 5.06328 20.8691 4.96505L16.8466 2.00799C16.4458 1.71345 16.0589 1.8729 15.9828 2.36442L15.219 7.29216C15.1936 7.45612 15.058 7.65898 14.918 7.74785C14.6375 7.9261 14.3622 8.11151 14.0913 8.30296C13.9557 8.39847 13.7166 8.44572 13.5553 8.40648L8.70171 7.21768C8.21809 7.09918 7.9226 7.39483 8.04078 7.87792L9.2304 12.7272C9.27011 12.8884 9.22239 13.1276 9.12679 13.2628C8.94574 13.5195 8.76987 13.7799 8.60015 14.0449C8.51077 14.1846 8.30739 14.3194 8.14337 14.3444L3.20834 15.0949C2.71646 15.1696 2.55585 15.5558 2.84963 15.957L5.79889 19.9831C5.89687 20.1168 5.94459 20.3557 5.90804 20.5176C5.8351 20.8405 5.76864 21.1663 5.71121 21.4949C5.68276 21.6581 5.54677 21.8606 5.4049 21.9468L1.13652 24.5325C0.711005 24.7902 0.711005 25.2083 1.13652 25.4661L5.40508 28.0519C5.54694 28.1377 5.68293 28.3406 5.71138 28.5038C5.766 28.8153 5.82854 29.1241 5.89739 29.4308C5.9336 29.5926 5.8852 29.8316 5.78688 29.965L2.82671 33.9841C2.5319 34.3845 2.69149 34.7711 3.18338 34.8472L8.11602 35.6102C8.28012 35.6356 8.48316 35.771 8.57212 35.911C8.75053 36.1912 8.93611 36.4663 9.12773 36.7369C9.22333 36.8723 9.27062 37.1113 9.23134 37.2724L8.04155 42.1217C7.92295 42.6049 8.21886 42.9001 8.70239 42.782L13.5561 41.5935C13.7174 41.5538 13.9569 41.6015 14.0921 41.697C14.349 41.8783 14.6097 42.0536 14.8749 42.2232C15.0147 42.3125 15.1496 42.5157 15.1747 42.6795L15.9258 47.6111C16.0006 48.1025 16.3871 48.263 16.7887 47.9696L20.8188 45.0229C20.9526 44.925 21.1918 44.8771 21.3538 44.9139C21.6771 44.9868 22.0031 45.0532 22.332 45.1105C22.4953 45.139 22.698 45.2748 22.7843 45.4165L25.3724 49.6813C25.6303 50.1064 26.0489 50.1064 26.3069 49.6813L28.895 45.4165C28.9809 45.2748 29.184 45.139 29.3473 45.1105C29.6591 45.0559 29.9682 44.9934 30.2752 44.9247C30.4371 44.8886 30.6764 44.9368 30.8098 45.0352L34.8326 47.9921C35.2334 48.2871 35.6204 48.1273 35.6965 47.6361L36.4603 42.708C36.4857 42.5441 36.6213 42.3412 36.7613 42.2523C37.0419 42.0741 37.3171 41.8887 37.588 41.6972C37.7235 41.6017 37.9627 41.5545 38.124 41.5937L42.9777 42.7823C43.4613 42.9007 43.7568 42.6051 43.6386 42.1219L42.449 37.2727C42.4093 37.1115 42.457 36.8722 42.5526 36.7372C42.7337 36.4805 42.9096 36.22 43.0792 35.955C43.1686 35.8154 43.372 35.6806 43.536 35.6556L48.4721 34.905C48.9639 34.8301 49.1245 34.4442 48.8308 34.0431L45.8816 30.0166C45.7836 29.8829 45.7359 29.6439 45.7724 29.482C45.8454 29.1591 45.9118 28.8333 45.9692 28.5048C45.9977 28.3415 46.1337 28.139 46.2755 28.0528L50.5441 25.4671C50.9677 25.2083 50.9677 24.7902 50.5422 24.5325Z" fill="white"/>
</g>
<defs>
<clipPath id="clip0">
<rect x="0.81665" width="50.0454" height="50" fill="white"/>
</clipPath>
</defs>
</svg>
