<svg width="134" height="46" viewBox="0 0 134 46" fill="none" xmlns="http://www.w3.org/2000/svg">
<path d="M52.2812 11.32C52.2812 9.90667 52.5879 8.64 53.2013 7.52C53.8413 6.37333 54.7346 5.38667 55.8813 4.56C57.0546 3.73333 58.4546 3.10666 60.0813 2.68C61.7346 2.22667 63.5613 2 65.5613 2H80.1213C80.4679 2 80.7479 2.12 80.9613 2.36C81.2013 2.57333 81.3213 2.85333 81.3213 3.2C81.3213 3.52 81.2013 3.8 80.9613 4.04C80.7479 4.28 80.4679 4.4 80.1213 4.4H74.8812C74.6413 5.65333 74.3746 7.04 74.0813 8.56C73.8146 10.0533 73.5213 11.5867 73.2013 13.16C72.9079 14.7067 72.6146 16.24 72.3213 17.76C72.0546 19.2533 71.8146 20.64 71.6013 21.92C71.3879 23.1733 71.2146 24.2667 71.0813 25.2C70.9479 26.1067 70.8813 26.7467 70.8813 27.12C70.8813 27.36 70.9079 27.48 70.9613 27.48C71.3346 27.48 71.6279 27.6133 71.8413 27.88C72.0813 28.12 72.2013 28.4 72.2013 28.72C72.2013 29.04 72.0546 29.3333 71.7613 29.6C71.4679 29.8667 70.9746 30 70.2813 30C69.2946 30 68.4679 29.72 67.8013 29.16C67.1346 28.6 66.6013 27.8533 66.2013 26.92C65.8279 25.9867 65.5613 24.8933 65.4013 23.64C65.2413 22.36 65.1613 21.0267 65.1613 19.64C65.1613 18.2533 65.2146 16.84 65.3213 15.4C65.4546 13.96 65.6146 12.5733 65.8013 11.24C65.9879 9.88 66.1746 8.61333 66.3613 7.44C66.5479 6.26667 66.7213 5.25333 66.8813 4.4H65.5613C64.7613 4.4 64.0413 4.57333 63.4013 4.92C62.7613 5.24 62.2013 5.70667 61.7213 6.32C61.2679 6.90667 60.9079 7.62666 60.6413 8.48C60.4013 9.33333 60.2813 10.28 60.2813 11.32C60.2813 12.0133 60.1613 12.6267 59.9213 13.16C59.7079 13.6933 59.4146 14.1333 59.0413 14.48C58.6679 14.8267 58.2413 15.0933 57.7613 15.28C57.2813 15.44 56.7879 15.52 56.2813 15.52C55.7746 15.52 55.2813 15.44 54.8013 15.28C54.3213 15.0933 53.8946 14.8267 53.5213 14.48C53.1479 14.1333 52.8413 13.6933 52.6013 13.16C52.3879 12.6267 52.2812 12.0133 52.2812 11.32ZM86.3706 30C84.904 30 83.5573 29.8133 82.3306 29.44C81.1306 29.04 80.104 28.48 79.2506 27.76C78.3973 27.04 77.7306 26.1733 77.2506 25.16C76.7973 24.12 76.5706 22.96 76.5706 21.68C76.5706 20.32 76.8373 19.0667 77.3706 17.92C77.9306 16.7467 78.6906 15.7467 79.6506 14.92C80.6373 14.0933 81.7973 13.4533 83.1306 13C84.4906 12.52 85.9706 12.28 87.5706 12.28C89.0373 12.28 90.3573 12.48 91.5306 12.88C92.704 13.2533 93.704 13.8 94.5306 14.52C95.3573 15.24 95.9973 16.12 96.4506 17.16C96.904 18.1733 97.1306 19.32 97.1306 20.6C97.1306 21.9867 96.864 23.2533 96.3306 24.4C95.824 25.5467 95.104 26.5333 94.1706 27.36C93.2373 28.1867 92.104 28.84 90.7706 29.32C89.4373 29.7733 87.9706 30 86.3706 30ZM88.9306 14.68C88.2373 14.68 87.6106 14.96 87.0506 15.52C86.5173 16.0533 86.064 16.7467 85.6906 17.6C85.3173 18.4267 85.024 19.3467 84.8106 20.36C84.624 21.3733 84.5306 22.3467 84.5306 23.28C84.5306 23.8667 84.5706 24.4267 84.6506 24.96C84.7306 25.4667 84.8506 25.92 85.0106 26.32C85.1973 26.72 85.424 27.04 85.6906 27.28C85.984 27.4933 86.3173 27.6 86.6906 27.6C87.384 27.6 87.9973 27.3333 88.5306 26.8C89.064 26.24 89.5173 25.5467 89.8906 24.72C90.2906 23.8667 90.584 22.9333 90.7706 21.92C90.984 20.88 91.0906 19.8933 91.0906 18.96C91.0906 17.7867 90.9173 16.7867 90.5706 15.96C90.2506 15.1067 89.704 14.68 88.9306 14.68ZM101.047 3C101.1 2.70667 101.233 2.46667 101.447 2.28C101.66 2.09333 101.913 2 102.207 2H107.807C108.18 2 108.473 2.10666 108.687 2.32C108.927 2.53333 109.047 2.8 109.047 3.12C109.047 3.25333 109.033 3.34666 109.007 3.4C108.793 4.49333 108.527 5.88 108.207 7.56C107.913 9.24 107.58 11.08 107.207 13.08C106.86 15.0533 106.5 17.1067 106.127 19.24C105.753 21.3733 105.407 23.4267 105.087 25.4C105.647 25.3733 106.153 25.1333 106.607 24.68C107.06 24.2 107.46 23.6267 107.807 22.96C108.18 22.2933 108.5 21.6133 108.767 20.92C109.033 20.2267 109.247 19.6533 109.407 19.2C109.487 18.9333 109.633 18.7333 109.847 18.6C110.06 18.4667 110.287 18.4 110.527 18.4C110.873 18.4 111.153 18.5067 111.367 18.72C111.607 18.9333 111.727 19.2133 111.727 19.56C111.727 19.7467 111.713 19.88 111.687 19.96C111.66 19.9867 111.553 20.2533 111.367 20.76C111.207 21.2667 110.967 21.9067 110.647 22.68C110.193 23.72 109.673 24.6267 109.087 25.4C108.527 26.1733 107.82 26.7867 106.967 27.24C107.58 27.88 108.033 28.68 108.327 29.64C108.62 30.5733 108.767 31.5467 108.767 32.56C108.767 33.4933 108.647 34.4 108.407 35.28C108.193 36.16 107.873 36.9467 107.447 37.64C107.02 38.36 106.487 38.9333 105.847 39.36C105.207 39.7867 104.473 40 103.647 40C102.607 40 101.74 39.6667 101.047 39C100.38 38.3333 99.8332 37.4133 99.4066 36.24C99.0066 35.0933 98.7266 33.7333 98.5666 32.16C98.3799 30.6133 98.2866 28.96 98.2866 27.2C98.2866 25.6267 98.3399 24.0133 98.4466 22.36C98.5532 20.68 98.6999 19.04 98.8866 17.44C99.0732 15.8133 99.2732 14.24 99.4866 12.72C99.6999 11.2 99.8999 9.81333 100.087 8.56C100.3 7.28 100.487 6.16 100.647 5.2C100.833 4.24 100.967 3.50667 101.047 3ZM103.967 37.48C104.367 37.48 104.713 37.3333 105.007 37.04C105.3 36.7733 105.54 36.4 105.727 35.92C105.94 35.4667 106.087 34.9467 106.167 34.36C106.273 33.8 106.327 33.2133 106.327 32.6C106.327 31.6933 106.18 30.84 105.887 30.04C105.62 29.2667 105.193 28.7333 104.607 28.44C104.34 30.2267 104.127 31.8133 103.967 33.2C103.807 34.6133 103.727 35.6933 103.727 36.44C103.727 37.1333 103.807 37.48 103.967 37.48ZM111.711 3C111.764 2.70667 111.897 2.46667 112.111 2.28C112.324 2.09333 112.577 2 112.871 2H118.471C118.844 2 119.137 2.10666 119.351 2.32C119.591 2.53333 119.711 2.8 119.711 3.12C119.711 3.25333 119.697 3.34666 119.671 3.4C119.457 4.49333 119.191 5.88 118.871 7.56C118.577 9.24 118.244 11.08 117.871 13.08C117.524 15.0533 117.164 17.1067 116.791 19.24C116.417 21.3733 116.071 23.4267 115.751 25.4C116.311 25.3733 116.817 25.1333 117.271 24.68C117.724 24.2 118.124 23.6267 118.471 22.96C118.844 22.2933 119.164 21.6133 119.431 20.92C119.697 20.2267 119.911 19.6533 120.071 19.2C120.151 18.9333 120.297 18.7333 120.511 18.6C120.724 18.4667 120.951 18.4 121.191 18.4C121.537 18.4 121.817 18.5067 122.031 18.72C122.271 18.9333 122.391 19.2133 122.391 19.56C122.391 19.7467 122.377 19.88 122.351 19.96C122.324 19.9867 122.217 20.2533 122.031 20.76C121.871 21.2667 121.631 21.9067 121.311 22.68C120.857 23.72 120.337 24.6267 119.751 25.4C119.191 26.1733 118.484 26.7867 117.631 27.24C118.244 27.88 118.697 28.68 118.991 29.64C119.284 30.5733 119.431 31.5467 119.431 32.56C119.431 33.4933 119.311 34.4 119.071 35.28C118.857 36.16 118.537 36.9467 118.111 37.64C117.684 38.36 117.151 38.9333 116.511 39.36C115.871 39.7867 115.137 40 114.311 40C113.271 40 112.404 39.6667 111.711 39C111.044 38.3333 110.497 37.4133 110.071 36.24C109.671 35.0933 109.391 33.7333 109.231 32.16C109.044 30.6133 108.951 28.96 108.951 27.2C108.951 25.6267 109.004 24.0133 109.111 22.36C109.217 20.68 109.364 19.04 109.551 17.44C109.737 15.8133 109.937 14.24 110.151 12.72C110.364 11.2 110.564 9.81333 110.751 8.56C110.964 7.28 111.151 6.16 111.311 5.2C111.497 4.24 111.631 3.50667 111.711 3ZM114.631 37.48C115.031 37.48 115.377 37.3333 115.671 37.04C115.964 36.7733 116.204 36.4 116.391 35.92C116.604 35.4667 116.751 34.9467 116.831 34.36C116.937 33.8 116.991 33.2133 116.991 32.6C116.991 31.6933 116.844 30.84 116.551 30.04C116.284 29.2667 115.857 28.7333 115.271 28.44C115.004 30.2267 114.791 31.8133 114.631 33.2C114.471 34.6133 114.391 35.6933 114.391 36.44C114.391 37.1333 114.471 37.48 114.631 37.48ZM121.895 6.44C121.895 5.34666 122.215 4.48 122.855 3.84C123.521 3.17333 124.388 2.84 125.455 2.84C126.548 2.84 127.415 3.17333 128.055 3.84C128.721 4.48 129.055 5.34666 129.055 6.44C129.055 7.50667 128.721 8.37333 128.055 9.04C127.415 9.68 126.548 10 125.455 10C124.388 10 123.521 9.68 122.855 9.04C122.215 8.37333 121.895 7.50667 121.895 6.44ZM125.095 30C124.081 30 123.241 29.7733 122.575 29.32C121.908 28.84 121.375 28.2133 120.975 27.44C120.601 26.64 120.335 25.7333 120.175 24.72C120.041 23.68 119.975 22.6133 119.975 21.52C119.975 20 120.068 18.5067 120.255 17.04C120.441 15.5467 120.628 14.2667 120.815 13.2C120.868 12.9067 121.001 12.6667 121.215 12.48C121.428 12.2933 121.681 12.2 121.975 12.2H127.575C127.948 12.2 128.241 12.3067 128.455 12.52C128.695 12.7333 128.815 13 128.815 13.32C128.815 13.4533 128.801 13.5467 128.775 13.6C128.588 14.56 128.388 15.5333 128.175 16.52C127.988 17.48 127.788 18.44 127.575 19.4C127.441 19.96 127.295 20.6133 127.135 21.36C126.975 22.08 126.815 22.8133 126.655 23.56C126.521 24.3067 126.401 25 126.295 25.64C126.215 26.28 126.175 26.76 126.175 27.08C126.175 27.3467 126.215 27.48 126.295 27.48C126.508 27.48 126.748 27.3067 127.015 26.96C127.281 26.6133 127.561 26.1733 127.855 25.64C128.175 25.08 128.481 24.48 128.775 23.84C129.095 23.1733 129.375 22.5333 129.615 21.92C129.881 21.3067 130.108 20.76 130.295 20.28C130.508 19.7733 130.655 19.4133 130.735 19.2C130.815 18.9333 130.961 18.7333 131.175 18.6C131.388 18.4667 131.615 18.4 131.855 18.4C132.201 18.4 132.481 18.5067 132.695 18.72C132.935 18.9333 133.055 19.2133 133.055 19.56C133.055 19.7467 133.041 19.88 133.015 19.96C133.015 19.9867 132.961 20.1467 132.855 20.44C132.748 20.7067 132.615 21.0667 132.455 21.52C132.295 21.9467 132.095 22.44 131.855 23C131.641 23.56 131.388 24.1333 131.095 24.72C130.215 26.5333 129.321 27.8667 128.415 28.72C127.508 29.5733 126.401 30 125.095 30Z" fill="white"/>
<path d="M34.3924 9.2738L31.7281 7.88125L30.9085 5.7673C30.7919 5.46645 30.554 5.22289 30.2553 5.09916L28.0919 4.20372L26.7256 1.60469C26.5072 1.18914 26.0479 0.949675 25.5813 1.00894C25.1154 1.06828 24.7303 1.41534 24.6229 1.87307L23.0262 8.68823C22.2082 8.38027 21.3329 8.21901 20.4326 8.21901C18.4697 8.21901 16.6243 8.98341 15.2364 10.3714L13.3795 12.2283C13.1863 12.4214 13.1863 12.7345 13.3795 12.9277L15.7219 15.2701C15.8625 15.4107 16.0728 15.4513 16.2576 15.3778C16.7802 15.1696 17.3564 15.0937 17.945 15.1693C18.5432 15.2462 19.1125 15.4877 19.5838 15.8639C20.4021 16.5171 20.8594 17.4734 20.8594 18.5C20.8594 18.9318 20.778 19.3509 20.6231 19.7404C20.5494 19.926 20.5892 20.1373 20.7305 20.2786L23.0725 22.6206C23.2656 22.8137 23.5787 22.8137 23.7718 22.6206L25.6288 20.7636C27.7309 18.6616 28.2907 15.5924 27.3083 12.9752L34.1266 11.3778C34.5845 11.2704 34.9318 10.8847 34.9908 10.418C35.0496 9.95124 34.809 9.49132 34.3924 9.2738Z" fill="white"/>
<path d="M21.6205 24.0723L19.2876 21.7396C19.1404 21.5923 18.9204 21.5509 18.7265 21.6267C18.3333 21.7805 17.9167 21.8577 17.5 21.8577C16.6398 21.8577 15.7795 21.5303 15.1245 20.8754C14.1471 19.8978 13.8995 18.4631 14.3811 17.2535C14.4538 17.0706 14.4104 16.8621 14.2711 16.7229L11.9276 14.3793C11.7344 14.1861 11.4214 14.1861 11.2282 14.3793L9.37127 16.2362C7.9833 17.6241 7.21891 19.4694 7.21891 21.4323C7.21891 22.3324 7.3801 23.2077 7.68799 24.0256L0.874133 25.622C0.416125 25.729 0.0685862 26.1145 0.00938694 26.5812C-0.0498123 27.0478 0.190471 27.5079 0.6076 27.7261L3.27191 29.1186L4.09181 31.2331C4.20877 31.5343 4.447 31.7778 4.74478 31.9006L6.90815 32.7961L8.27445 35.3952C8.47091 35.7688 8.86206 36 9.27735 36C9.32438 36 9.37168 35.997 9.41906 35.9909C9.88506 35.9315 10.2701 35.5841 10.377 35.1269L11.9747 28.3079C12.8083 28.6209 13.6879 28.7774 14.5675 28.7774C16.4493 28.7774 18.3311 28.0611 19.7636 26.6285L21.6205 24.7716C21.8136 24.5785 21.8136 24.2655 21.6205 24.0723Z" fill="white"/>
<path d="M18.4237 17.5766C18.177 17.3299 17.8491 17.194 17.5002 17.194C17.1512 17.194 16.8233 17.3297 16.5765 17.5765C16.0674 18.0857 16.0674 18.9144 16.5766 19.4236C17.0856 19.9327 17.9143 19.9329 18.4236 19.4236C18.6703 19.1769 18.8062 18.849 18.8062 18.5C18.8062 18.1511 18.6704 17.8232 18.4237 17.5766Z" fill="white"/>
</svg>
